<svg width="14" height="14" viewBox="0 0 14 14" fill="none" xmlns="http://www.w3.org/2000/svg">
<g clip-path="url(#clip0_1016_118)">
<path fill-rule="evenodd" clip-rule="evenodd" d="M0.6 0.399902C0.268629 0.399902 0 0.668531 0 0.999902C0 1.33127 0.268629 1.5999 0.6 1.5999H1.69925L3.20968 9.90723C3.26155 10.1925 3.51003 10.3999 3.8 10.3999H11.8C12.0753 10.3999 12.3153 10.2125 12.3821 9.94542L13.9821 3.54542C14.0269 3.36618 13.9866 3.17628 13.8729 3.03065C13.7592 2.88502 13.5848 2.7999 13.4 2.7999H3.13711L2.79032 0.892571C2.73845 0.607277 2.48997 0.399902 2.2 0.399902H0.6ZM4.30074 9.1999L3.35529 3.9999H12.6315L11.3315 9.1999H4.30074ZM5.2 13.5999C4.536 13.5999 4 13.0639 4 12.3999C4 11.7359 4.536 11.1999 5.2 11.1999C5.864 11.1999 6.4 11.7359 6.4 12.3999C6.4 13.0639 5.864 13.5999 5.2 13.5999ZM10.4 13.5999C9.736 13.5999 9.2 13.0639 9.2 12.3999C9.2 11.7359 9.736 11.1999 10.4 11.1999C11.064 11.1999 11.6 11.7359 11.6 12.3999C11.6 13.0639 11.064 13.5999 10.4 13.5999Z" fill="black"/>
</g>
<defs>
<clipPath id="clip0_1016_118">
<rect width="14" height="14" fill="white"/>
</clipPath>
</defs>
</svg>
