<svg width="239" height="30" viewBox="0 0 239 30" fill="none" xmlns="http://www.w3.org/2000/svg">
<path d="M11.4 29.08C7.93332 29.08 5.15999 28.3867 3.07999 27C1.02666 25.6134 -9.71556e-06 23.5867 -9.71556e-06 20.92C-9.71556e-06 20.6534 0.026657 20.2534 0.0799903 19.72H9.51999C9.43999 20.5467 9.55999 21.16 9.87999 21.56C10.2267 21.96 10.7867 22.16 11.56 22.16C12.04 22.16 12.44 22.04 12.76 21.8C13.08 21.56 13.24 21.2134 13.24 20.76C13.24 20.12 12.92 19.5867 12.28 19.16C11.6667 18.7334 10.6667 18.2267 9.27999 17.64C7.75999 17 6.50666 16.3867 5.51999 15.8C4.55999 15.2134 3.71999 14.4134 2.99999 13.4C2.27999 12.3867 1.91999 11.12 1.91999 9.60005C1.91999 7.60005 2.41332 5.88005 3.39999 4.44005C4.41332 2.97338 5.81332 1.86671 7.59999 1.12005C9.38666 0.373381 11.4267 4.76837e-05 13.72 4.76837e-05C15.7733 4.76837e-05 17.6 0.320048 19.2 0.960047C20.8267 1.60005 22.0933 2.53338 23 3.76005C23.9333 4.96005 24.4 6.38671 24.4 8.04005C24.4 8.25338 24.3733 8.62671 24.32 9.16005H14.76C14.8133 8.84005 14.84 8.62671 14.84 8.52005C14.84 8.01338 14.6933 7.62671 14.4 7.36005C14.1067 7.06671 13.7067 6.92005 13.2 6.92005C12.7467 6.92005 12.3733 7.05338 12.08 7.32005C11.7867 7.58672 11.64 7.93338 11.64 8.36005C11.64 8.94671 11.9467 9.46671 12.56 9.92005C13.1733 10.3467 14.1467 10.88 15.48 11.52C17 12.24 18.2533 12.92 19.24 13.56C20.2533 14.2 21.12 15.0534 21.84 16.12C22.56 17.16 22.92 18.44 22.92 19.96C22.92 21.6934 22.4533 23.2534 21.52 24.64C20.6133 26.0267 19.2933 27.12 17.56 27.92C15.8267 28.6934 13.7733 29.08 11.4 29.08ZM53.3441 10.2C53.0241 11.9867 52.3307 13.6134 51.2641 15.08C50.1974 16.52 48.7707 17.6667 46.9841 18.52C45.2241 19.3734 43.1974 19.8 40.9041 19.8H37.3841L35.7841 28.8H26.9041L31.9041 0.480049H44.3041C47.3174 0.480049 49.6107 1.16005 51.1841 2.52005C52.7574 3.88005 53.5441 5.74672 53.5441 8.12005C53.5441 8.70671 53.4774 9.40005 53.3441 10.2ZM41.1441 12.8C42.9574 12.8 44.0241 11.9334 44.3441 10.2C44.3974 9.88005 44.4241 9.65338 44.4241 9.52005C44.4241 8.24005 43.6374 7.60005 42.0641 7.60005H39.5441L38.6241 12.8H41.1441ZM68.7606 29.08C66.3606 29.08 64.2539 28.5867 62.4406 27.6C60.6273 26.6134 59.2273 25.2267 58.2406 23.44C57.2539 21.6267 56.7606 19.56 56.7606 17.24C56.7606 13.8534 57.4539 10.8667 58.8406 8.28005C60.2539 5.66672 62.2139 3.64005 64.7206 2.20005C67.2539 0.733381 70.1606 4.76837e-05 73.4406 4.76837e-05C75.894 4.76837e-05 78.0273 0.493381 79.8406 1.48005C81.6806 2.44005 83.0939 3.81338 84.0806 5.60005C85.0673 7.36005 85.5606 9.40005 85.5606 11.72C85.5606 15.08 84.8539 18.08 83.4406 20.72C82.054 23.36 80.0806 25.4134 77.5206 26.88C74.9873 28.3467 72.0673 29.08 68.7606 29.08ZM70.1206 20.8C71.5073 20.8 72.7073 20.44 73.7206 19.72C74.7606 18.9734 75.5473 18 76.0806 16.8C76.6139 15.5734 76.8806 14.2534 76.8806 12.84C76.8806 11.3734 76.4806 10.24 75.6806 9.44005C74.9073 8.61338 73.7873 8.20005 72.3206 8.20005C70.9339 8.20005 69.7206 8.56005 68.6806 9.28005C67.6406 10 66.8406 10.9734 66.2806 12.2C65.7473 13.4 65.4806 14.7067 65.4806 16.12C65.4806 17.5867 65.8673 18.7334 66.6406 19.56C67.4406 20.3867 68.6006 20.8 70.1206 20.8ZM106.604 0.480049C109.644 0.480049 111.951 1.16005 113.524 2.52005C115.097 3.88005 115.884 5.69338 115.884 7.96005C115.884 8.62671 115.831 9.22671 115.724 9.76005C115.377 11.68 114.551 13.3734 113.244 14.84C111.937 16.28 110.244 17.32 108.164 17.96L112.404 28.8H102.644L99.0841 18.64L97.2841 28.8H88.4041L93.4041 0.480049H106.604ZM100.124 12.72H103.644C104.497 12.72 105.164 12.5334 105.644 12.16C106.151 11.76 106.484 11.1467 106.644 10.32C106.671 10.1867 106.684 10.0134 106.684 9.80005C106.684 9.21338 106.497 8.76005 106.124 8.44005C105.751 8.09338 105.204 7.92005 104.484 7.92005H100.964L100.124 12.72ZM144.441 0.480049L143.201 7.52005H135.681L131.921 28.8H123.041L126.801 7.52005H119.361L120.601 0.480049H144.441ZM153.929 22.08H162.489L161.289 28.8H143.849L148.849 0.480049H157.729L153.929 22.08ZM179.964 0.480049L174.964 28.8H166.084L171.084 0.480049H179.964ZM208.134 28.8H199.254L192.374 14.56L189.854 28.8H180.974L185.974 0.480049H194.854L201.694 14.96L204.254 0.480049H213.134L208.134 28.8ZM226.786 7.52005L226.186 11.04H234.986L233.786 17.72H224.986L224.266 21.72H234.266L233.026 28.8H214.146L219.146 0.480049H238.026L236.786 7.52005H226.786Z" fill="black"/>
</svg>
